<svg xmlns="http://www.w3.org/2000/svg" width="1500" height="1000" viewBox="0 0 1500 1000"><rect width="1500" height="1000" fill="#0b1110"/><path d="M0 520c210-80 392-86 540-28 230 92 420 18 620-45 125-40 225-42 340-15v568H0z" fill="#13251f"/><g stroke="#5f806b" stroke-width="9" opacity=".8"><path d="M170 900c80-210 160-320 310-420"/><path d="M410 930c120-200 235-285 410-330"/><path d="M950 930c-80-220-190-350-360-430"/><path d="M1180 920c-95-195-180-300-330-380"/></g><g stroke="#d5cfaf" stroke-width="2" opacity=".2"><path d="M210 0v1000M430 0v1000M810 0v1000M1120 0v1000M1320 0v1000"/></g></svg>
