<svg xmlns="http://www.w3.org/2000/svg" width="1400" height="1750" viewBox="0 0 1400 1750" role="img" aria-label="Layered mountains at first light"><defs><linearGradient id="s" x1="0" x2="0" y1="0" y2="1"><stop stop-color="#25282a"/><stop offset=".52" stop-color="#101417"/><stop offset="1" stop-color="#090909"/></linearGradient><linearGradient id="g" x1="0" x2="1"><stop stop-color="#d4b778"/><stop offset=".45" stop-color="#6f8f92"/><stop offset="1" stop-color="#202326"/></linearGradient></defs><rect width="1400" height="1750" fill="url(#s)"/><circle cx="1010" cy="330" r="130" fill="#d8ba74" opacity=".72"/><path d="M0 990 275 520l230 330 155-205 310 395 160-290 270 425v575H0z" fill="#161b1e"/><path d="M0 1160 310 720l260 340 210-265 330 405 130-210 160 245v515H0z" fill="#232a2c"/><path d="M0 1295 360 930l250 260 275-310 515 520v350H0z" fill="#0f1213"/><path d="M0 0h1400v1750H0z" fill="url(#g)" opacity=".16"/></svg>
