<svg xmlns="http://www.w3.org/2000/svg" width="3900" height="950" viewBox="0 0 3900 950"><rect width="3900" height="950" fill="#11161a"/><path d="M0 390c500-120 770-135 1180-30 390 100 680 82 1000-18 540-170 980-115 1720 70v538H0z" fill="#1d2428"/><path d="M0 575 480 330l350 200 320-255 470 275 360-190 430 260 400-210 410 250 680-110v400H0z" fill="#0c0f10"/><path d="M0 720h3900v230H0z" fill="#090909"/><path d="M1450 150c280 90 520 100 820 25" stroke="#d0c5a3" stroke-width="18" opacity=".25"/></svg>
